<svg width="36" height="36" viewBox="0 0 36 36" fill="none" xmlns="http://www.w3.org/2000/svg">
<circle cx="18" cy="18" r="18" fill="#BA2AAC"/>
<path fill-rule="evenodd" clip-rule="evenodd" d="M22.0814 10.57C22.0814 11.4335 21.3573 12.1399 20.4722 12.1399C19.5871 12.1399 18.863 11.4335 18.863 10.57C18.863 9.70649 19.5871 9 20.4722 9C21.3573 9 22.0814 9.70649 22.0814 10.57ZM8 21.1666C8 18.9687 9.77015 17.2417 12.0231 17.2417C14.276 17.2417 16.0461 18.9687 16.0461 21.1666C16.0461 23.3646 14.276 25.0916 12.0231 25.0916C9.77015 25.0916 8 23.3646 8 21.1666ZM12.0223 23.9139C10.4935 23.9139 9.20612 22.6579 9.20612 21.1664C9.20612 19.6749 10.4935 18.4189 12.0223 18.4189C13.551 18.4189 14.8384 19.6749 14.8384 21.1664C14.8384 22.6579 13.551 23.9139 12.0223 23.9139ZM23.3669 16.458C21.6772 16.458 20.3093 15.83 19.2633 14.8095L18.6197 14.1815L16.6886 16.0655L18.4587 17.8709V22.7379H16.8495V18.8129L14.2748 16.615C13.9529 16.3795 13.792 15.987 13.792 15.516C13.792 15.1235 13.9529 14.731 14.2748 14.417L16.5277 12.219C16.7691 11.905 17.1714 11.748 17.6541 11.748C18.1369 11.748 18.5392 11.905 18.9415 12.219L20.4703 13.7105C21.1944 14.417 22.16 14.888 23.3669 14.888V16.458ZM23.285 17.2416C21.0321 17.2416 19.2619 18.9686 19.2619 21.1666C19.2619 23.3645 21.0321 25.0915 23.285 25.0915C25.5379 25.0915 27.308 23.3645 27.308 21.1666C27.308 18.9686 25.5379 17.2416 23.285 17.2416ZM20.4692 21.1665C20.4692 22.658 21.7565 23.914 23.2853 23.914C24.8141 23.914 26.1014 22.658 26.1014 21.1665C26.1014 19.675 24.8141 18.4191 23.2853 18.4191C21.7565 18.4191 20.4692 19.675 20.4692 21.1665Z" fill="white"/>
</svg>
