<svg width="36" height="36" viewBox="0 0 36 36" fill="none" xmlns="http://www.w3.org/2000/svg">
<circle cx="18" cy="18" r="18" fill="#FFB600"/>
<path fill-rule="evenodd" clip-rule="evenodd" d="M11.6484 23.9255C11.0764 23.4023 10.7107 22.6507 10.7107 21.8136V12.3004C10.7107 8.97078 14.0677 8.49512 18.2125 8.49512C22.3572 8.49512 25.7143 8.97078 25.7143 12.3004V21.8136C25.7143 22.6507 25.3485 23.4023 24.7765 23.9255V25.6189C24.7765 26.1421 24.3546 26.5702 23.8388 26.5702H22.9011C22.3853 26.5702 21.9634 26.1421 21.9634 25.6189V24.6675H14.4616V25.6189C14.4616 26.1421 14.0396 26.5702 13.5239 26.5702H12.5861C12.0704 26.5702 11.6484 26.1421 11.6484 25.6189V23.9255ZM12.5859 21.3378C12.5859 22.1274 13.2142 22.7648 13.9925 22.7648C14.7708 22.7648 15.399 22.1274 15.399 21.3378C15.399 20.5482 14.7708 19.9109 13.9925 19.9109C13.2142 19.9109 12.5859 20.5482 12.5859 21.3378ZM22.4316 22.7648C21.6533 22.7648 21.025 22.1274 21.025 21.3378C21.025 20.5482 21.6533 19.9109 22.4316 19.9109C23.21 19.9109 23.8383 20.5482 23.8383 21.3378C23.8383 22.1274 23.21 22.7648 22.4316 22.7648ZM12.5859 17.0567H23.8386V12.3002H12.5859V17.0567Z" fill="white"/>
</svg>
