<svg width="49" height="49" viewBox="0 0 49 49" fill="none" xmlns="http://www.w3.org/2000/svg">
<circle cx="23.9999" cy="25" r="16.5" stroke="#13264B"/>
<path d="M40.4482 28.0854C37.9266 28.1964 32.8834 28.8181 32.8834 30.4168C32.8834 32.4151 30.9921 32.7481 31.4649 34.0804C31.8432 35.1461 30.5193 35.7456 30.0465 37.0778C29.7528 37.9054 29.8574 39.8089 30.9921 40.0753" stroke="#13264B"/>
<path d="M17.2476 9.90638C17.6563 10.3039 18.3553 11.4525 17.8813 12.8665C17.2889 14.634 18.5152 15.8266 17.717 17.2378C16.9188 18.6489 13.8905 19.9221 12.8783 20.0314C11.8661 20.1406 10.0716 21.4249 10.483 22.1376C10.8945 22.8503 9.06839 24.6068 10.2863 24.8539C11.5043 25.101 11.7266 27.3485 11.9323 27.7048C12.138 28.0612 11.1424 30.0615 11.3481 30.4178C11.5127 30.7029 10.4897 32.6557 9.95754 33.5965" stroke="#13264B"/>
<mask id="path-5-inside-1" fill="white">
<path fill-rule="evenodd" clip-rule="evenodd" d="M19.399 23.0889C19.399 20.6236 21.4563 18.6296 23.9999 18.6296C26.5435 18.6296 28.6008 20.6236 28.6008 23.0889C28.6008 23.9118 28.1442 25.0885 27.539 25.991C25.341 28.9816 24.7165 30.3218 24.4404 30.9145C24.259 31.3037 24.2279 31.3705 23.9999 31.3705C23.772 31.3705 23.7409 31.3038 23.5598 30.9149C23.2839 30.3225 22.6597 28.9823 20.4608 25.991C19.8562 25.0888 19.399 23.9118 19.399 23.0889ZM23.9998 24.4692C24.6839 24.4692 25.2385 23.9146 25.2385 23.2305C25.2385 22.5464 24.6839 21.9918 23.9998 21.9918C23.3157 21.9918 22.7611 22.5464 22.7611 23.2305C22.7611 23.9146 23.3157 24.4692 23.9998 24.4692Z"/>
</mask>
<path d="M27.539 25.991L28.3448 26.5832L28.3576 26.5659L28.3696 26.548L27.539 25.991ZM24.4404 30.9145L23.5339 30.4921L23.5339 30.4921L24.4404 30.9145ZM23.5598 30.9149L24.4663 30.4927L24.4663 30.4927L23.5598 30.9149ZM20.4608 25.991L19.63 26.5477L19.6422 26.5658L19.6551 26.5833L20.4608 25.991ZM23.9999 17.6296C20.9337 17.6296 18.399 20.0421 18.399 23.0889H20.399C20.399 21.2051 21.9789 19.6296 23.9999 19.6296V17.6296ZM29.6008 23.0889C29.6008 20.0421 27.0661 17.6296 23.9999 17.6296V19.6296C26.0209 19.6296 27.6008 21.2051 27.6008 23.0889H29.6008ZM28.3696 26.548C29.0332 25.5584 29.6008 24.1866 29.6008 23.0889H27.6008C27.6008 23.637 27.2553 24.6187 26.7085 25.4341L28.3696 26.548ZM25.3468 31.3368C25.5943 30.8056 26.1847 29.5221 28.3448 26.5832L26.7333 25.3988C24.4972 28.441 23.8387 29.838 23.5339 30.4921L25.3468 31.3368ZM23.9999 32.3705C24.0914 32.3705 24.2613 32.3661 24.4496 32.3046C24.6684 32.2332 24.8444 32.1087 24.9801 31.9583C25.0951 31.8308 25.1696 31.6966 25.2127 31.6143C25.2581 31.5278 25.3052 31.4261 25.3468 31.3368L23.5339 30.4921C23.4848 30.5975 23.4601 30.6501 23.4415 30.6856C23.4206 30.7252 23.439 30.6808 23.4951 30.6186C23.5279 30.5822 23.5747 30.5382 23.6373 30.4966C23.7008 30.4542 23.7665 30.4237 23.8292 30.4033C23.9419 30.3665 24.0224 30.3705 23.9999 30.3705V32.3705ZM22.6533 31.3371C22.6948 31.4262 22.7419 31.5279 22.7872 31.6144C22.8304 31.6967 22.9048 31.8308 23.0198 31.9583C23.1555 32.1088 23.3316 32.2333 23.5503 32.3047C23.7386 32.3661 23.9085 32.3705 23.9999 32.3705V30.3705C23.9774 30.3705 24.0579 30.3665 24.1706 30.4033C24.2332 30.4237 24.2989 30.4542 24.3626 30.4965C24.4251 30.5382 24.472 30.5823 24.5048 30.6187C24.5609 30.6809 24.5794 30.7255 24.5586 30.6859C24.5401 30.6505 24.5154 30.598 24.4663 30.4927L22.6533 31.3371ZM19.6551 26.5833C21.816 29.5228 22.4061 30.8062 22.6533 31.3371L24.4663 30.4927C24.1617 29.8387 23.5035 28.4417 21.2665 25.3987L19.6551 26.5833ZM18.399 23.0889C18.399 24.1868 18.9674 25.5588 19.63 26.5477L21.2915 25.4343C20.745 24.6188 20.399 23.6368 20.399 23.0889H18.399ZM24.2385 23.2305C24.2385 23.3624 24.1317 23.4692 23.9998 23.4692V25.4692C25.2362 25.4692 26.2385 24.4669 26.2385 23.2305H24.2385ZM23.9998 22.9918C24.1317 22.9918 24.2385 23.0987 24.2385 23.2305H26.2385C26.2385 21.9941 25.2362 20.9918 23.9998 20.9918V22.9918ZM23.7611 23.2305C23.7611 23.0987 23.868 22.9918 23.9998 22.9918V20.9918C22.7634 20.9918 21.7611 21.9941 21.7611 23.2305H23.7611ZM23.9998 23.4692C23.868 23.4692 23.7611 23.3624 23.7611 23.2305H21.7611C21.7611 24.4669 22.7634 25.4692 23.9998 25.4692V23.4692Z" fill="#13264B" mask="url(#path-5-inside-1)"/>
<line x1="29.9999" y1="21.3706" x2="33.9999" y2="21.3706" stroke="#13264B"/>
<line x1="29.9999" y1="23.3706" x2="33.9999" y2="23.3706" stroke="#13264B"/>
<line x1="29.9999" y1="25.3706" x2="32.9999" y2="25.3706" stroke="#13264B"/>
</svg>
