<svg width="49" height="49" viewBox="0 0 49 49" fill="none" xmlns="http://www.w3.org/2000/svg">
<circle cx="24" cy="24" r="16.5" stroke="#13264B"/>
<path d="M8.5 29.5001L24.1421 13.8579" stroke="#13264B"/>
<path d="M27.0828 10.9173L29.5 8.5" stroke="#13264B"/>
<path d="M17.5 38.5L29.5003 26.4998" stroke="#13264B" stroke-linecap="square"/>
<path d="M32.6868 23.313L38.4998 17.5" stroke="#13264B" stroke-linecap="square"/>
<path d="M16.3535 9.64645L15.9999 9.29289L15.2928 10L15.6464 10.3536L16.3535 9.64645ZM15.6464 10.3536L29.2761 23.9833L29.9832 23.2761L16.3535 9.64645L15.6464 10.3536Z" fill="#13264B"/>
<path d="M7.6465 20.3536L14.4882 27.1953L15.1953 26.4882L8.35361 19.6464L7.6465 20.3536Z" fill="#13264B"/>
<path d="M17.7455 30.4526L27.6464 40.3535L28.3536 39.6464L18.4526 29.7454L17.7455 30.4526Z" fill="#13264B"/>
<circle cx="25.5" cy="12.5" r="2" stroke="#13264B"/>
<circle cx="16.5" cy="28.5" r="2" stroke="#13264B"/>
<circle cx="31" cy="25" r="2" stroke="#13264B"/>
</svg>
