<svg width="49" height="49" viewBox="0 0 49 49" fill="none" xmlns="http://www.w3.org/2000/svg">
<circle cx="24" cy="24" r="16.5" stroke="#13264B"/>
<path d="M37 33.5H37.5V32.5H37V33.5ZM19.9099 35V40.4099L20.9099 40.4099L20.9099 35H19.9099ZM22.4099 33.5L37 33.5V32.5L22.4099 32.5V33.5ZM20.9099 35C20.9099 34.1716 21.5815 33.5 22.4099 33.5V32.5C21.0292 32.5 19.9099 33.6193 19.9099 35H20.9099Z" fill="#13264B"/>
<path d="M37 14.5H37.5V15.5H37V14.5ZM19.9099 13V7.59005L20.9099 7.59006L20.9099 13H19.9099ZM22.4099 14.5L37 14.5V15.5L22.4099 15.5V14.5ZM20.9099 13C20.9099 13.8284 21.5815 14.5 22.4099 14.5V15.5C21.0292 15.5 19.9099 14.3807 19.9099 13H20.9099Z" fill="#13264B"/>
<path d="M22 18H27" stroke="#13264B"/>
<path d="M22 30H27" stroke="#13264B"/>
<path d="M22 24H27" stroke="#13264B"/>
<path d="M30 24L40 24" stroke="#13264B"/>
<path d="M13 36L13 12" stroke="#13264B" stroke-dasharray="4 3"/>
<path d="M22 21H27" stroke="#13264B"/>
<path d="M22 27H27" stroke="#13264B"/>
</svg>
