<svg width="49" height="49" viewBox="0 0 49 49" fill="none" xmlns="http://www.w3.org/2000/svg">
<circle cx="25" cy="24" r="16.5" stroke="#13264B"/>
<path d="M24.3775 16.6699L24.0239 16.3163L23.3168 17.0234L23.6704 17.377L24.3775 16.6699ZM23.6704 17.377L32.8213 26.5279L33.5284 25.8208L24.3775 16.6699L23.6704 17.377Z" fill="#13264B"/>
<path d="M22.7998 18.7191C27.3975 23.3167 17.2437 27.663 21.5807 32" stroke="#13264B"/>
<circle cx="22.9766" cy="33.4255" r="2" stroke="#13264B"/>
<circle cx="34.5" cy="27.5" r="2" stroke="#13264B"/>
<rect x="17.96" y="17.4645" width="7.40959" height="4" rx="2" transform="rotate(-45 17.96 17.4645)" stroke="#13264B"/>
<path d="M14.7439 10.8596L19.5595 15.6752M24.0362 34.6519L29.2439 39.8596" stroke="#13264B"/>
<path d="M36.5934 28.8363L36.2399 28.4827L35.5328 29.1898L35.8863 29.5434L36.5934 28.8363ZM35.8863 29.5434L38.8994 32.5564L39.6065 31.8493L36.5934 28.8363L35.8863 29.5434Z" fill="#13264B"/>
<path d="M17.354 9.64645L17.0004 9.29289L16.2933 10L16.6469 10.3536L17.354 9.64645ZM16.6469 10.3536L20.7595 14.4662L21.4666 13.7591L17.354 9.64645L16.6469 10.3536Z" fill="#13264B"/>
</svg>
