<svg xmlns="http://www.w3.org/2000/svg" width="115" height="24" viewBox="0 0 115 24" fill="none">
<path d="M44.1597 8.72192C44.1597 8.72192 43.9062 8.68858 43.5802 8.68858C39.8496 8.68858 38.6905 10.6223 38.6905 14.5564V20.2909H34.9961V5.66961H38.6181V7.25496C39.8496 5.88801 41.3346 5.45459 43.4353 5.45459C43.544 5.45459 43.7613 5.45459 44.1597 5.48793V8.72192Z" fill="white"/>
<path d="M49.5136 11.457H55.961C55.9265 10.1898 55.168 8.58917 52.8235 8.58917C50.8238 8.58917 49.7894 10.0564 49.5136 11.457ZM49.3067 14.158C49.4791 16.3589 51.0306 17.6928 53.2717 17.6928C55.0646 17.6928 56.3058 16.8591 57.1677 15.6253L59.5467 17.7595C58.2366 19.3601 56.3747 20.7273 53.2717 20.7273C48.7551 20.7273 45.6865 17.6261 45.6865 13.191C45.6865 8.95598 48.3758 5.45459 52.7545 5.45459C57.6159 5.45459 59.6502 9.2561 59.6502 12.9242C59.6502 13.4244 59.6157 14.1247 59.6157 14.1247H49.3067V14.158Z" fill="white"/>
<path d="M72.3361 20.2909V11.6337C72.3361 9.7502 71.3093 8.49456 69.5034 8.49456C67.4144 8.49456 66.3167 9.91541 66.3167 12.0302L66.3051 20.2909H62.7051V5.67277H66.2459V7.0737C66.9541 6.31371 68.2642 5.45459 70.2824 5.45459C72.4069 5.45459 73.7878 6.28067 74.6022 7.33805C75.8769 6.01632 77.4703 5.45459 79.4531 5.45459C83.5959 5.45459 85.6142 7.76761 85.6142 11.865V20.2909H82.0025V11.6337C82.0025 9.7502 80.9757 8.49456 79.1699 8.49456C77.0808 8.49456 75.9477 9.91541 75.9477 12.0302V20.2909H72.3361Z" fill="white"/>
<path d="M89.3232 20.2908V5.67261H92.8141V20.2908H89.3232Z" fill="white"/>
<path d="M89.3232 3.49091V0H92.8141V3.49091H89.3232Z" fill="white"/>
<path d="M100.092 5.67261L102.959 10.0447L105.827 5.67261H109.919L104.953 12.7814L110.269 20.2908H106.177L102.959 15.5182L99.777 20.2908H95.6504L101.001 12.7814L96.0001 5.67261H100.092Z" fill="white"/>
<path fill-rule="evenodd" clip-rule="evenodd" d="M11 0L10.995 9.585L1.409 0H11ZM22.574 13L11.579 24H1.409L12.404 13H22.574ZM13 11V0H24V11H13ZM24 14.398V24H14.4L24 14.398ZM0 22.574V1.409L10.582 11.992L0 22.574Z" fill="white"/>
</svg>